<mxfile host="app.diagrams.net" modified="2022-10-25T00:51:15.047Z" agent="5.0 (Macintosh; Intel Mac OS X 10_15_7) AppleWebKit/537.36 (KHTML, like Gecko) Chrome/106.0.0.0 Safari/537.36" etag="_zC-aIJNpKt0x_KGhM3Q" version="20.4.0" type="github">
  <diagram id="7nk6eQPHhUL6S2deodAz" name="q17">
    <mxGraphModel dx="665" dy="712" grid="1" gridSize="10" guides="1" tooltips="1" connect="1" arrows="1" fold="1" page="1" pageScale="1" pageWidth="850" pageHeight="1100" math="0" shadow="0">
      <root>
        <mxCell id="0" />
        <mxCell id="1" parent="0" />
        <mxCell id="DHJsjrCEPJyL6oHBZEnf-4" style="edgeStyle=orthogonalEdgeStyle;rounded=0;orthogonalLoop=1;jettySize=auto;html=1;exitX=0.5;exitY=1;exitDx=0;exitDy=0;entryX=0.5;entryY=0;entryDx=0;entryDy=0;" edge="1" parent="1" source="DHJsjrCEPJyL6oHBZEnf-1" target="DHJsjrCEPJyL6oHBZEnf-3">
          <mxGeometry relative="1" as="geometry" />
        </mxCell>
        <mxCell id="DHJsjrCEPJyL6oHBZEnf-1" value="Start" style="ellipse;whiteSpace=wrap;html=1;" vertex="1" parent="1">
          <mxGeometry x="130" y="180" width="70" height="40" as="geometry" />
        </mxCell>
        <mxCell id="DHJsjrCEPJyL6oHBZEnf-2" value="End" style="ellipse;whiteSpace=wrap;html=1;" vertex="1" parent="1">
          <mxGeometry x="130" y="540" width="70" height="40" as="geometry" />
        </mxCell>
        <mxCell id="DHJsjrCEPJyL6oHBZEnf-6" style="edgeStyle=orthogonalEdgeStyle;rounded=0;orthogonalLoop=1;jettySize=auto;html=1;exitX=0.5;exitY=1;exitDx=0;exitDy=0;entryX=0.5;entryY=0;entryDx=0;entryDy=0;" edge="1" parent="1" source="DHJsjrCEPJyL6oHBZEnf-3" target="DHJsjrCEPJyL6oHBZEnf-5">
          <mxGeometry relative="1" as="geometry" />
        </mxCell>
        <mxCell id="DHJsjrCEPJyL6oHBZEnf-3" value="def averageLength(words)-&amp;gt;int:" style="shape=process;whiteSpace=wrap;html=1;backgroundOutline=1;" vertex="1" parent="1">
          <mxGeometry x="50" y="240" width="230" height="40" as="geometry" />
        </mxCell>
        <mxCell id="DHJsjrCEPJyL6oHBZEnf-8" style="edgeStyle=orthogonalEdgeStyle;rounded=0;orthogonalLoop=1;jettySize=auto;html=1;exitX=0.5;exitY=1;exitDx=0;exitDy=0;entryX=0.5;entryY=0;entryDx=0;entryDy=0;" edge="1" parent="1" source="DHJsjrCEPJyL6oHBZEnf-5" target="DHJsjrCEPJyL6oHBZEnf-7">
          <mxGeometry relative="1" as="geometry" />
        </mxCell>
        <mxCell id="DHJsjrCEPJyL6oHBZEnf-5" value="a, temp = len(words), 0" style="rounded=0;whiteSpace=wrap;html=1;" vertex="1" parent="1">
          <mxGeometry x="80" y="300" width="170" height="40" as="geometry" />
        </mxCell>
        <mxCell id="DHJsjrCEPJyL6oHBZEnf-10" style="edgeStyle=orthogonalEdgeStyle;rounded=0;orthogonalLoop=1;jettySize=auto;html=1;exitX=0.5;exitY=1;exitDx=0;exitDy=0;entryX=0.5;entryY=0;entryDx=0;entryDy=0;" edge="1" parent="1" source="DHJsjrCEPJyL6oHBZEnf-7" target="DHJsjrCEPJyL6oHBZEnf-9">
          <mxGeometry relative="1" as="geometry" />
        </mxCell>
        <mxCell id="DHJsjrCEPJyL6oHBZEnf-7" value="for i in words" style="shape=hexagon;perimeter=hexagonPerimeter2;whiteSpace=wrap;html=1;fixedSize=1;" vertex="1" parent="1">
          <mxGeometry x="120" y="360" width="90" height="40" as="geometry" />
        </mxCell>
        <mxCell id="DHJsjrCEPJyL6oHBZEnf-11" style="edgeStyle=orthogonalEdgeStyle;rounded=0;orthogonalLoop=1;jettySize=auto;html=1;exitX=1;exitY=0.5;exitDx=0;exitDy=0;entryX=1;entryY=0.5;entryDx=0;entryDy=0;" edge="1" parent="1" source="DHJsjrCEPJyL6oHBZEnf-9" target="DHJsjrCEPJyL6oHBZEnf-7">
          <mxGeometry relative="1" as="geometry" />
        </mxCell>
        <mxCell id="DHJsjrCEPJyL6oHBZEnf-13" style="edgeStyle=orthogonalEdgeStyle;rounded=0;orthogonalLoop=1;jettySize=auto;html=1;exitX=0.5;exitY=1;exitDx=0;exitDy=0;entryX=0.5;entryY=0;entryDx=0;entryDy=0;" edge="1" parent="1" source="DHJsjrCEPJyL6oHBZEnf-9" target="DHJsjrCEPJyL6oHBZEnf-12">
          <mxGeometry relative="1" as="geometry" />
        </mxCell>
        <mxCell id="DHJsjrCEPJyL6oHBZEnf-9" value="temp+=len(i.strip())" style="rounded=0;whiteSpace=wrap;html=1;" vertex="1" parent="1">
          <mxGeometry x="105" y="420" width="120" height="40" as="geometry" />
        </mxCell>
        <mxCell id="DHJsjrCEPJyL6oHBZEnf-14" style="edgeStyle=orthogonalEdgeStyle;rounded=0;orthogonalLoop=1;jettySize=auto;html=1;exitX=0.5;exitY=1;exitDx=0;exitDy=0;entryX=0.5;entryY=0;entryDx=0;entryDy=0;" edge="1" parent="1" source="DHJsjrCEPJyL6oHBZEnf-12" target="DHJsjrCEPJyL6oHBZEnf-2">
          <mxGeometry relative="1" as="geometry" />
        </mxCell>
        <mxCell id="DHJsjrCEPJyL6oHBZEnf-12" value="return temp/a" style="rounded=0;whiteSpace=wrap;html=1;" vertex="1" parent="1">
          <mxGeometry x="120" y="480" width="90" height="40" as="geometry" />
        </mxCell>
      </root>
    </mxGraphModel>
  </diagram>
</mxfile>
